<?xml version="1.0" encoding="utf-8"?>
<!DOCTYPE svg PUBLIC "-//W3C//DTD SVG 1.0//EN" "http://www.w3.org/TR/2001/REC-SVG-20010904/DTD/svg10.dtd">
<svg version="1.0" xmlns="http://www.w3.org/2000/svg" width="1536px" height="1024px" viewBox="0 0 1536 1024" preserveAspectRatio="xMidYMid meet">
 <g fill="#0a0d10">
  <path d="M1149.9 704.1 c-9.2 -2.3 -15.1 -5.1 -14.5 -6.8 0.3 -0.7 -0.1 -1.3 -1 -1.3 -0.8 0 -1.2 0.5 -0.8 1.1 0.8 1.4 -2.6 -0.4 -8.4 -4.3 -2.3 -1.6 -4 -3.3 -3.7 -3.7 0.2 -0.5 -0.3 -0.8 -1.2 -0.7 -1 0 -1.8 -0.6 -1.8 -1.4 -0.1 -0.8 -0.7 -1.4 -1.4 -1.2 -1.7 0.4 -6.2 -3.8 -5.5 -4.9 0.3 -0.5 -0.2 -0.9 -1.1 -0.9 -2.1 0 -7.8 -5.7 -7 -7 0.3 -0.5 0 -0.7 -0.7 -0.5 -1.4 0.6 -6 -4.4 -15.1 -16.1 -4.6 -5.9 -5.8 -8.2 -3.5 -6.8 0.7 0.4 0.8 0.3 0.4 -0.5 -0.4 -0.6 -1.1 -0.9 -1.6 -0.6 -0.5 0.3 -1.7 -0.7 -2.7 -2.2 -0.9 -1.5 -1.8 -3 -1.9 -3.2 -0.2 -0.2 -9.5 -0.2 -20.8 -0.2 -11.3 0.1 -22.3 -0.1 -24.3 -0.5 -3.6 -0.7 -3.7 -0.8 -1.3 -1.6 2 -0.6 1.8 -0.7 -1.1 -0.4 -3.8 0.4 -8.4 -1.7 -7.4 -3.4 0.3 -0.5 0 -1.2 -0.6 -1.6 -0.8 -0.5 -0.9 -0.3 -0.4 0.7 0.8 1.2 0.6 1.2 -0.9 0 -0.9 -0.8 -1.5 -2 -1.2 -2.8 0.3 -0.8 0.1 -1.1 -0.4 -0.8 -2.1 1.3 -4.2 -10.6 -4.3 -23.6 0 -12.7 -0.6 -14.9 -2.7 -10.9 -0.6 1.1 -2 2 -3 2 -1.2 0 -2 0.7 -2 1.8 0 1.4 0.2 1.5 1 0.2 0.5 -0.8 1 -1.1 1 -0.7 0 1.8 -7.3 9.7 -8.4 9 -0.6 -0.3 -0.8 -0.3 -0.4 0.2 1.5 1.6 -22.5 25.1 -24.4 23.9 -0.6 -0.4 -0.8 -0.3 -0.5 0.4 0.9 1.3 -9.2 9.4 -10.6 8.5 -0.5 -0.3 -0.7 -0.1 -0.4 0.4 0.4 0.6 -0.9 2.3 -2.7 3.7 -3.7 2.8 -5.2 3.3 -4 1.4 0.4 -0.7 0.3 -0.8 -0.5 -0.4 -0.6 0.4 -0.9 1.1 -0.6 1.6 0.7 1.2 -2.2 3.3 -3.6 2.4 -0.7 -0.4 -0.9 -0.3 -0.6 0.3 0.3 0.5 -0.8 2 -2.5 3.3 -1.7 1.2 -2.8 1.8 -2.4 1.2 0.3 -0.6 -0.4 -0.9 -1.9 -0.8 -1.4 0 -2.5 0.7 -2.5 1.5 0 0.8 0.6 1.1 1.5 0.7 2.5 -0.9 1.7 0 -2.5 2.8 -2.2 1.4 -4.7 2.6 -5.5 2.6 -0.9 0 -1.4 0.4 -1.1 0.9 0.3 0.4 -2.1 2.5 -5.3 4.4 -4.3 2.7 -6.5 3.5 -8.7 3.1 -2.1 -0.3 -2.5 -0.2 -1.4 0.5 0.8 0.5 1.8 0.7 2.2 0.5 0.4 -0.3 0.8 -0.3 0.8 0 0 1.1 -13.1 7.6 -14.2 7 -0.6 -0.4 -0.8 -0.3 -0.5 0.3 0.8 1.3 -15.9 8.7 -17.5 7.7 -0.7 -0.5 -0.8 -0.3 -0.3 0.6 0.6 1 0.3 1.2 -1.3 0.8 -1.2 -0.4 -2 -0.3 -1.7 0.2 0.7 1.1 -14.9 5.2 -18.8 4.9 -1.8 -0.1 -4 0.2 -5 0.6 -4.1 1.7 -21.9 -1.8 -24.9 -4.8 -1.1 -1.2 -1.8 -1.6 -1.4 -0.9 1.2 2.1 -0.7 1.4 -6.2 -2.3 -3.1 -2.1 -5 -4 -4.6 -4.7 0.4 -0.6 0.3 -0.9 -0.2 -0.5 -0.5 0.3 -1.6 0 -2.5 -0.6 -3.4 -2.6 -13.9 -18.1 -11 -16.3 0.7 0.4 0.8 0.1 0.5 -0.8 -0.3 -0.9 -1 -1.6 -1.5 -1.6 -0.5 0 -1.4 -2 -2.2 -4.5 l-1.3 -4.6 -12.9 -0.2 c-15 -0.3 -17.8 -1.3 -21.3 -7.5 -2.3 -4.1 -3.2 -14.2 -1.2 -14.2 0.6 0 1 -0.8 1 -1.7 0 -1.5 -0.2 -1.6 -1 -0.3 -0.7 1.1 -1 0.4 -1 -2.7 0 -2.4 -0.2 -4.3 -0.4 -4.3 -0.3 0 -4.1 2.3 -8.5 5.1 -4.7 3 -8.5 4.8 -9.2 4.3 -0.7 -0.4 -1 -0.3 -0.6 0.3 0.9 1.5 -14.6 8.5 -16.8 7.7 -1.2 -0.5 -1.6 -0.4 -1.2 0.3 0.4 0.6 -2.4 2.2 -6.9 3.8 -6.3 2.3 -7.8 2.5 -8.5 1.4 -0.7 -1.1 -0.9 -1.1 -0.9 0.2 0 1.7 -4.4 3.4 -6 2.4 -0.6 -0.4 -1 -0.2 -1 0.4 0 1.2 -10.6 3.5 -12.6 2.7 -0.8 -0.3 -1.3 -0.2 -1 0.3 0.6 0.9 -11.7 2.7 -28.3 4.1 -12.1 1 -40.2 0.5 -50.1 -1 -14.3 -2.1 -23.2 -4.3 -21.8 -5.3 0.9 -0.6 0.7 -0.7 -0.7 -0.2 -2.6 0.8 -14.6 -2.5 -13.8 -3.8 0.3 -0.6 0.1 -0.7 -0.4 -0.4 -0.6 0.4 -3.2 -0.1 -5.8 -0.9 -3.5 -1.2 -4.4 -1.9 -3.4 -2.6 1 -0.7 0.5 -0.8 -1.4 -0.4 -2.2 0.5 -3.3 0.1 -5.4 -2.1 -1.4 -1.6 -2.3 -2.2 -1.9 -1.5 1.6 2.7 -3.9 -0.1 -7.4 -3.8 -1.2 -1.2 -1.3 -1.2 -0.5 -0.1 2.4 3.6 -16.9 -9.6 -26.8 -18.2 -5.1 -4.5 -6.5 -6.2 -5.5 -6.9 1 -0.8 0.9 -0.9 -0.3 -0.5 -2.1 0.7 -5.9 -3.2 -5.9 -6.1 0 -1.2 -0.5 -2.2 -1.1 -2.2 -0.5 0 -0.7 0.6 -0.4 1.3 0.4 0.6 -0.7 -0.3 -2.4 -2.1 -1.8 -1.8 -2.9 -3.7 -2.6 -4.3 0.4 -0.5 0.1 -0.8 -0.7 -0.7 -0.7 0.2 -1.2 -0.5 -1.2 -1.4 0.1 -1 -0.2 -1.6 -0.6 -1.3 -1.1 0.7 -8.2 -10.4 -7.4 -11.7 0.4 -0.6 0.3 -0.8 -0.3 -0.5 -1.3 0.8 -8.8 -14.7 -7.8 -16.3 0.5 -0.8 0.4 -1.1 -0.2 -0.7 -1.2 0.7 -5.5 -10.4 -7.7 -19.8 -1.4 -5.8 -1.4 -5.9 -2.1 -2.8 -0.4 1.8 -1.1 3 -1.6 2.8 -0.4 -0.3 -1.1 0 -1.5 0.6 -0.4 0.8 -0.3 0.9 0.4 0.5 0.7 -0.4 1.2 -0.1 1.2 0.9 0 1 -0.5 1.3 -1.2 0.9 -0.7 -0.4 -0.8 -0.3 -0.4 0.5 1.1 1.7 -0.3 7.3 -1.6 6.5 -0.7 -0.4 -0.8 -0.2 -0.4 0.5 1.1 1.8 -5.4 23.1 -7 23.1 -0.8 0 -1.4 0.8 -1.4 1.8 0 1.5 0.2 1.5 1.1 0.2 1 -1.3 1 -1.3 0.6 0 -0.2 0.8 -2.1 7.2 -4.2 14.2 -2.3 7.6 -4.2 12.5 -4.8 12.1 -0.6 -0.3 -0.7 -0.1 -0.3 0.5 1 1.7 -1.5 10.7 -2.6 9 -0.5 -0.8 -0.6 -0.2 -0.2 1.6 0.5 2 0.4 2.7 -0.4 2.2 -0.8 -0.4 -1 -0.2 -0.6 0.8 0.5 1.3 -6.1 23.5 -7.3 24.6 -0.4 0.3 -0.3 -0.4 0.1 -1.5 0.4 -1.1 0.3 -1.6 -0.1 -1.1 -0.4 0.4 -0.8 2 -0.8 3.4 0 1.7 -0.8 3 -2.2 3.8 -1.3 0.6 -2.1 1.3 -1.8 1.6 0.3 0.3 -0.7 1.4 -2.2 2.4 -2.7 1.8 -5.5 1.9 -56.8 1.9 -51.6 0 -60.3 -0.4 -59 -2.5 0.3 -0.5 0 -0.7 -0.8 -0.5 -0.7 0.3 -2.2 -0.5 -3.3 -1.7 -1.8 -2.2 -1.8 -2.2 0 -0.8 1.8 1.4 1.9 1.4 0.7 -0.8 -0.7 -1.2 -1.6 -2 -2.1 -1.7 -0.6 0.4 -0.7 -0.1 -0.3 -1.1 0.4 -1.1 0.2 -1.5 -0.4 -1.1 -1.3 0.8 -2.7 -3.9 -1.7 -5.5 0.5 -0.7 0.2 -0.8 -0.6 -0.3 -1 0.6 -1.2 0.4 -0.6 -1.1 0.4 -1 0.4 -1.5 -0.1 -1.1 -1 1.1 -4.4 -9 -3.6 -11 0.4 -1 0.2 -1.4 -0.4 -1 -1.2 0.8 -3.7 -6.9 -2.7 -8.6 0.4 -0.7 0.3 -0.8 -0.2 -0.4 -1.1 1 -5.5 -11.9 -4.7 -13.8 0.3 -0.8 0.1 -1.5 -0.5 -1.5 -1.3 0 -4.4 -9.8 -3.6 -11.3 0.4 -0.7 0.3 -0.9 -0.1 -0.5 -1 0.9 -4.7 -9 -3.9 -10.3 0.3 -0.5 0.1 -0.9 -0.4 -0.9 -1.4 0 -6.4 -15.4 -5.6 -17.6 0.4 -1.4 0.3 -1.5 -0.4 -0.6 -0.7 1.1 -1.1 0.8 -1.6 -1.3 -0.4 -1.4 -0.4 -3.1 0 -3.7 0.4 -0.6 0.3 -0.8 -0.3 -0.5 -1.3 0.8 -6.5 -15.5 -5.7 -17.9 0.4 -1.4 0.3 -1.5 -0.4 -0.6 -0.7 1.1 -1.1 0.8 -1.6 -1.3 -0.4 -1.4 -0.4 -3.1 0 -3.7 0.4 -0.6 0.3 -0.8 -0.3 -0.5 -1.3 0.8 -6.5 -15.5 -5.7 -17.9 0.4 -1.4 0.3 -1.5 -0.4 -0.6 -0.7 1.1 -1.1 0.8 -1.6 -1.3 -0.4 -1.4 -0.4 -3.1 0 -3.7 0.4 -0.6 0.3 -0.8 -0.3 -0.5 -1.3 0.8 -6.5 -15.5 -5.7 -17.9 0.4 -1.4 0.3 -1.5 -0.4 -0.6 -0.7 1.1 -1.1 0.8 -1.6 -1.3 -0.4 -1.4 -0.4 -3.1 0 -3.7 0.4 -0.6 0.3 -0.8 -0.3 -0.5 -1.3 0.8 -2.7 -3.9 -1.7 -5.5 0.5 -0.7 0.2 -0.8 -0.6 -0.3 -1 0.6 -1.1 0.1 -0.6 -2.1 0.4 -1.7 0.3 -2.4 -0.2 -1.6 -1.1 1.7 -3.2 -4.9 -2.5 -8 0.4 -1.8 0.2 -2 -0.5 -0.9 -0.9 1.2 -1.2 1 -1.7 -1.1 -0.4 -1.5 -0.4 -3.2 0.1 -3.9 0.4 -0.7 0.3 -0.9 -0.4 -0.6 -1.4 0.9 -6.1 -13.2 -5.6 -16.9 0.3 -2 0.2 -2.4 -0.4 -1.1 -0.5 1.3 -1.7 -1.3 -4.5 -9.5 -2 -6.2 -3.5 -12.2 -3.3 -13.3 0.2 -1.1 0.1 -1.3 -0.2 -0.5 -0.3 0.8 -2.2 -3.6 -4.3 -9.9 -2.1 -6.3 -3.6 -11.8 -3.3 -12.2 0.3 -0.5 0.1 -0.9 -0.5 -0.9 -1.3 0 -7.1 -18.9 -7.2 -23.7 0 -2.9 -0.2 -3.3 -0.8 -1.8 -0.8 2 -0.8 2 -1.5 -0.2 -0.4 -1.2 -0.4 -3.4 -0.1 -5 0.4 -2.1 0.3 -2.3 -0.3 -0.9 -0.8 1.9 -0.9 1.8 -1.5 -0.5 -1.5 -5.5 0.9 -15.9 3.3 -14.4 0.6 0.4 0.9 0.1 0.8 -0.5 -0.5 -1.9 4.5 -5 8.2 -5.1 3 -0.1 6.9 0.5 7.8 1.1 0.7 0.7 2.9 0.5 4 -0.3 0.8 -0.6 1.7 -0.5 2.7 0.3 0.9 0.7 1.8 1 2.2 0.6 0.3 -0.3 0.1 -0.6 -0.6 -0.6 -0.7 0 -0.9 -0.4 -0.6 -1 0.3 -0.5 1.3 -1 2.1 -1 1 0 1.2 0.5 0.8 1.3 -0.6 0.9 -0.4 0.9 0.8 -0.1 1.3 -1 1.9 -1 3.2 0.3 1.4 1.5 1.6 1.5 1.6 0.1 0 -0.9 0.7 -1.6 1.6 -1.6 0.8 0 1.3 0.4 1 0.9 -0.3 0.5 0.2 0.8 1.2 0.7 0.9 0 1.6 0.4 1.5 1.1 -0.2 0.7 0.4 1 1.2 0.6 1.1 -0.3 1.2 -0.9 0.6 -1.7 -0.8 -0.9 3.2 -1.2 16.4 -1.2 14.8 0 17.2 0.2 16.2 1.4 -0.9 1.2 -0.8 1.4 0.8 1 1.1 -0.2 1.9 -0.9 1.8 -1.4 -0.2 -1.4 3.4 -1.1 4.9 0.4 0.8 0.8 1.8 0.7 4 -0.4 2.9 -1.5 5.3 -1.1 4.3 0.7 -0.7 1 4.5 0.7 6.3 -0.5 0.7 -0.4 1.2 -0.2 1.2 0.3 0 0.6 0.5 1.1 1.1 1.1 0.6 0 0.9 -0.7 0.5 -1.5 -0.3 -0.9 0 -1.5 0.9 -1.5 0.8 0 1.2 0.6 0.9 1.4 -0.6 1.6 1.9 1.6 3.3 0.1 0.4 -0.4 0.2 -0.5 -0.6 0 -0.9 0.5 -1.2 0.4 -0.8 -0.2 0.7 -1.1 9.7 -1 11.7 0.2 0.8 0.5 1.1 0.4 0.7 -0.2 -0.5 -0.8 9.6 -1.1 11.3 -0.3 0.3 0.1 1.6 0.2 3 0.1 3.4 -0.2 8.6 3.2 10.5 6.9 0.8 1.6 1.1 3 0.6 3 -0.5 0 -1.2 -0.6 -1.4 -1.2 -0.4 -1 -0.6 -1 -0.6 0 -0.1 0.7 0.6 2 1.4 2.8 1.2 1.2 1.5 1.2 1.6 0.2 0 -0.7 1.2 2.8 2.5 7.7 1.5 5.6 2.5 12.1 2.6 17.2 0.1 4.5 0.5 8 1 7.7 0.4 -0.3 0.8 0.3 0.9 1.3 0 1.7 0.1 1.7 0.8 -0.1 0.5 -1.2 1.6 2 3.5 10.2 1.6 6.6 2.5 12.6 2.1 13.3 -0.5 0.7 -0.4 1 0.2 0.6 0.9 -0.6 4.3 11.7 4.3 15.6 0 3.8 1.9 1.4 3.1 -3.8 0.7 -3 1.6 -5.5 2 -5.5 0.5 0 0.6 -0.6 0.4 -1.2 -0.7 -1.7 8.9 -39.9 9.9 -39.8 0.4 0.1 1.1 -0.2 1.4 -0.6 0.4 -0.4 0.1 -0.4 -0.5 0 -1.8 1 -1.7 0.1 1.7 -13.4 3.1 -12.9 4.5 -16.4 6.1 -15.5 0.5 0.4 0.8 0.1 0.7 -0.5 -0.7 -2.8 4.6 -5 13 -5.4 4.5 -0.2 8 -0.1 7.8 0.3 -0.6 0.9 2 0.7 5.1 -0.3 1.3 -0.4 3.2 -0.2 4.4 0.4 1.2 0.7 1.9 0.8 1.6 0.3 -0.4 -0.6 0.8 -1 2.6 -1 1.8 0 2.4 0.2 1.4 0.4 -0.9 0.3 -1.5 0.9 -1.2 1.3 0.3 0.5 1.7 0.4 3.1 -0.2 2 -1 2.7 -0.9 3.5 0.3 0.7 1.2 0.9 1.2 0.9 -0.1 0 -1.4 2.2 -1.6 15.7 -1.5 11.4 0 15.8 0.4 16.1 1.3 0.5 1.5 3.2 1.6 3.2 0.1 0 -0.5 -0.4 -0.7 -1 -0.4 -0.5 0.3 -1 0.2 -1 -0.3 0 -1.4 6.3 -0.9 6.7 0.5 0.3 0.7 1.1 0.9 1.9 0.6 1 -0.4 1.2 -0.8 0.5 -1.2 -0.6 -0.4 3 -0.8 7.9 -0.8 5.4 -0.1 8.8 0.2 8.4 0.8 -0.3 0.5 -1 0.7 -1.5 0.4 -0.5 -0.4 -0.9 -0.2 -0.9 0.3 0 1.1 4.6 1.9 7.3 1.4 1.1 -0.2 1.6 -0.9 1.3 -1.8 -0.5 -1.2 0.4 -1.5 4.2 -1.3 7.3 0.2 12.2 1.7 11.6 3.4 -0.5 1.1 0.1 1.5 1.9 1.5 2.8 0 4.7 3.8 4.7 9.2 0 4.3 -3.1 14.3 -3.9 12.9 -0.4 -0.7 -0.8 0.2 -0.8 1.9 0 3.6 0.1 3.6 3.7 1 1.5 -1.1 3 -1.6 3.4 -1.2 0.4 0.4 0.6 0 0.4 -0.8 -0.2 -0.9 0.4 -1.4 1.4 -1.4 1 0.1 1.6 -0.2 1.5 -0.6 -0.4 -1.8 6.2 -5.6 9.3 -5.4 1.7 0.1 2.9 0 2.6 -0.3 -0.3 -0.4 0.2 -1.2 1.2 -2 1.6 -1.2 1.6 -1.3 -0.3 -0.7 -1.7 0.5 -1.7 0.4 -0.5 -0.5 3.4 -2.6 9 -5 10.3 -4.5 0.8 0.3 1.8 0.1 2.2 -0.5 0.4 -0.7 -0.1 -0.8 -1.2 -0.4 -1 0.3 -1.6 0.3 -1.3 0 0.8 -0.9 18.8 -7.8 19.7 -7.5 0.5 0 2.2 -0.4 3.8 -1.1 6.4 -2.7 26.2 -6.3 34 -6.4 5 0 7.2 -0.3 6 -0.8 -1.5 -0.6 -1 -0.8 2 -0.8 3.1 0 3.6 0.2 2 0.9 -1.8 0.8 -1.7 0.9 0.8 0.9 1.6 0.1 2.6 -0.3 2.2 -0.9 -0.3 -0.6 0.4 -1 1.7 -1 1.8 0 2 0.2 0.8 1 -1.2 0.8 -0.9 1 1.1 1 1.5 0 2.9 -0.7 3.3 -1.5 0.8 -2.1 20.6 -2.2 20.6 -0.1 0 1 3.1 1.3 15.3 1.3 14.7 0.1 21.4 0.9 37 4.7 3.2 0.7 6.1 1.7 6.5 2.1 0.4 0.4 -0.4 0.4 -1.8 0.1 -1.8 -0.5 -2.1 -0.5 -1 0.3 0.8 0.5 3 1 5 0.9 7.1 0 32 11.2 32 14.5 0 1.4 0.6 1.8 2.4 1.5 1.3 -0.1 3.5 0.3 4.9 1.1 2.2 1.2 2.8 1.2 4.1 -0.2 1.7 -1.7 2.2 -6.2 0.6 -5.2 -0.6 0.4 -1 -0.6 -1 -2.3 0 -3.3 3.3 -8.6 7 -11.4 3.1 -2.3 9.8 -2.7 11.1 -0.7 0.7 1.1 0.9 1.1 0.9 -0.4 0 -1.6 1 -1.7 9.4 -1.5 5.3 0.1 9.2 0.6 8.9 1.1 -0.3 0.5 0.3 0.7 1.3 0.4 5.9 -1.8 7.7 -2 6.9 -0.7 -0.6 0.9 -0.4 1.1 0.6 0.5 0.7 -0.5 5.5 -1 10.6 -1.1 7.7 -0.2 9.4 0 10.2 1.3 0.8 1.5 1.1 1.5 3.7 -0.1 2.5 -1.7 2.8 -1.7 3.9 -0.3 0.7 1 1.6 1.2 2.5 0.7 1 -0.6 0.9 -0.9 -0.6 -1.3 -1 -0.2 0.9 -0.5 4.4 -0.5 4 0 6.8 0.5 7.7 1.4 1.8 1.8 3.6 1.8 2.9 0 -0.5 -1.3 1.9 -1.4 16.3 -1.1 9.2 0.2 19.9 0.4 23.6 0.4 5.8 0.1 7 0.4 7.4 2 0.4 1.6 1.5 1.8 9.2 1.8 9.2 -0.1 18.5 1.8 17.4 3.6 -0.4 0.7 0 0.8 1.2 0.3 2.5 -0.9 12.2 2.3 10.4 3.5 -1 0.6 -0.4 0.9 1.7 0.9 4.3 0 9.5 2 8.7 3.3 -0.3 0.6 -0.1 0.7 0.5 0.3 0.6 -0.4 2.5 0 4.2 0.9 3.1 1.6 4.2 3.2 1.4 2.1 -0.8 -0.3 -1.2 -0.2 -0.9 0.4 0.3 0.6 1.8 1 3.3 1 3.5 0 8 3.1 7.5 5 -0.4 1.2 -0.3 1.3 0.5 0.1 0.8 -1.1 2.4 -0.3 8.1 4 3.9 2.9 7.1 5.6 7.1 6.1 0 0.4 0.6 0.8 1.3 0.8 1.9 0 7 5.7 6.3 6.9 -0.4 0.6 0.1 1.1 1.1 1.1 2.3 0 8.6 6.3 7.6 7.5 -0.5 0.4 -0.2 0.5 0.5 0.1 0.7 -0.4 1.5 -0.1 1.8 0.8 1 2.5 2.6 1.9 1.8 -0.6 -0.6 -2 -0.5 -2.1 1 -0.9 0.9 0.7 1.6 0.9 1.6 0.3 0 -0.5 -0.7 -1.3 -1.6 -1.6 -1.3 -0.5 -1.5 -3.1 -1.2 -19.9 0.3 -18.6 0.4 -19.5 2.7 -22.9 1.6 -2.3 3 -3.4 4 -3 0.9 0.3 1.2 0.1 0.7 -0.6 -0.7 -1.2 0.3 -2 4.5 -3.2 1.9 -0.6 2.7 -0.5 2.3 0.1 -0.3 0.6 0 0.9 0.7 0.8 0.8 -0.1 2.7 0.1 4.2 0.6 1.7 0.4 3.3 0.3 3.9 -0.3 0.7 -0.7 1.6 -0.7 2.9 0.1 1.3 0.8 2.4 0.8 4.3 -0.1 1.6 -0.7 2.8 -0.8 3.1 -0.2 0.9 1.5 2.5 1.2 2.5 -0.5 0 -1.8 6.9 -1.4 8.1 0.6 0.7 1.2 1 1.2 2.1 0 1 -1 1 -1.2 0.1 -0.7 -0.7 0.4 -1.3 0.4 -1.3 -0.1 0 -0.4 2.2 -0.9 5 -0.9 2.7 -0.1 4.7 0.3 4.4 0.8 -0.3 0.4 -0.9 0.6 -1.4 0.3 -0.5 -0.3 -1.1 -0.1 -1.5 0.5 -0.8 1.3 1.1 1.3 3.6 0 2.9 -1.6 11.6 -2.2 12.5 -0.9 0.4 0.8 0.9 0.7 1.5 -0.2 0.5 -0.8 0.9 -0.9 0.9 -0.3 0 0.7 1.1 0.9 2.8 0.7 6.1 -1 14.2 -1 13.5 0 -0.3 0.6 -0.1 0.7 0.5 0.3 0.7 -0.4 4.5 -0.9 8.6 -1.1 5.8 -0.3 7.4 -0.1 7 0.9 -0.3 0.7 0.2 1.3 1 1.3 0.8 0 1.4 -0.5 1.3 -1.1 -0.3 -1.8 10.2 -1.6 11.4 0.3 0.9 1.4 1 1.4 0.5 -0.1 -0.3 -1 -0.1 -1.8 0.4 -1.8 0.6 0 1 0.3 1 0.8 0 0.4 3.9 0.5 8.7 0.4 10.8 -0.5 26.9 0.8 23.3 1.8 l-2.5 0.7 3 0.6 c1.7 0.4 5.5 0.6 8.5 0.5 5.4 -0.1 20.6 3.9 24 6.3 1.3 0.9 1.2 1 -0.2 0.5 -1 -0.3 -2 -0.1 -2.3 0.3 -0.3 0.5 1 0.8 2.8 0.6 2.2 -0.1 6.2 1.3 13 4.6 12.1 6 16.5 9 15.9 10.7 -0.3 0.9 0.3 1.2 1.5 1 2.3 -0.4 9.3 4.3 12.9 8.5 1.3 1.5 2.4 2.5 2.4 2.1 0 -0.4 1.1 0.3 2.5 1.6 1.3 1.2 2.2 2.7 1.8 3.3 -0.3 0.6 -0.1 0.7 0.4 0.4 1.3 -0.8 3.6 1.7 2.5 2.8 -0.4 0.5 -0.2 0.5 0.4 0.2 1.4 -0.8 3.6 1.6 3.1 3.4 -0.2 0.8 -0.2 1.1 0 0.7 0.2 -0.4 1.5 0.3 2.8 1.4 1.4 1.2 2.2 2.5 1.9 3 -0.3 0.5 -0.2 0.7 0.3 0.6 0.4 -0.2 0.8 0.2 0.8 0.7 0 0.6 -0.4 0.9 -0.9 0.7 -0.5 -0.2 -0.3 0.4 0.4 1.3 0.7 0.9 1.9 1.4 2.7 1.1 1.6 -0.7 4.9 4.1 4.5 6.6 -0.2 1.2 0.3 1.8 1.5 1.8 2.1 0 5.8 5.4 4.8 7 -0.4 0.6 -0.3 0.9 0.2 0.8 0.4 -0.2 1 0.2 1.2 0.7 0.3 0.6 1.1 1.7 1.9 2.5 0.9 0.9 1.1 1.5 0.4 1.8 -1.4 0.4 -0.3 3.2 1.3 3.2 0.6 0 2.6 3.1 4.4 6.8 3.4 7.6 3.9 9.6 1.5 6.6 -1.4 -1.7 -1.5 -1.7 -1 -0.1 0.3 1 0.6 2.1 0.6 2.3 0 0.2 0.7 0.4 1.5 0.4 2.4 0 5.7 12.3 5.9 22.5 0.2 7.6 0.5 9 1.9 9.3 1.1 0.2 1.7 1.3 1.7 3.3 0 1.7 -0.4 2.8 -0.8 2.5 -0.4 -0.2 -0.8 0.7 -0.9 2.2 -0.1 1.5 0.1 2.1 0.4 1.5 0.2 -0.7 0.9 -1.3 1.5 -1.3 1.5 0 0.6 43.9 -1 46.5 -0.8 1.4 -1.2 1.6 -1.2 0.5 0 -1.3 -0.2 -1.3 -0.9 0 -1.2 1.7 -0.4 3.3 1.1 2.4 0.8 -0.5 0.9 0.3 0.5 2.6 -0.4 1.8 -0.7 4 -0.8 4.9 0 1.2 -0.2 1.2 -1 -0.4 -0.7 -1.5 -0.8 -1.1 -0.4 1.7 0.7 4.7 -1.1 12.8 -3.3 14.5 -0.9 0.8 -1.1 1.2 -0.4 0.8 1.5 -0.8 1.5 -0.6 -0.4 6.9 -0.8 3.3 -2.1 6.6 -2.8 7.1 -0.7 0.6 -1.3 2.7 -1.3 4.8 -0.1 4.4 -13.1 43.7 -14.5 43.7 -0.5 0 -0.6 -0.5 -0.2 -1.2 0.4 -0.7 0.3 -0.8 -0.4 -0.4 -0.7 0.4 -1.2 1.4 -1.2 2.2 0 0.8 0.4 1.3 0.9 0.9 0.5 -0.3 0.2 1.3 -0.6 3.5 -0.9 2.2 -2 3.7 -2.4 3.4 -0.5 -0.3 -0.6 0.1 -0.3 0.9 0.7 2 -11.4 25.9 -12.8 25.1 -0.7 -0.4 -0.8 -0.2 -0.4 0.4 0.9 1.5 -2.3 6.4 -3.7 5.5 -0.6 -0.3 -0.7 -0.1 -0.3 0.5 0.4 0.6 -0.1 2.3 -1 3.7 -1.3 2 -1.9 2.3 -2.6 1.3 -0.7 -1 -0.9 -0.9 -0.5 0.4 0.7 2 -4.7 9.8 -6.8 9.8 -0.8 0 -1.5 0.6 -1.5 1.3 0 1.9 -5.8 7.9 -7 7.2 -0.6 -0.4 -0.9 -0.1 -0.8 0.6 0.2 0.6 -2.2 3.3 -5.4 5.8 -5.6 4.6 -17.4 11.9 -16.3 10.1 0.3 -0.6 -0.1 -1 -1 -1 -1.1 0 -1.5 0.5 -1.2 1.4 0.8 2.1 -13.2 7 -20.1 7 -3.2 0 -4.6 0.3 -3.5 0.7 4 1.6 -20.3 0.7 -26.8 -1z m-274.4 -11.1 c0.3 -0.5 -0.1 -1 -0.9 -1 -0.8 0 -1.8 0.5 -2.1 1 -0.3 0.6 0.1 1 0.9 1 0.8 0 1.8 -0.4 2.1 -1z m305.7 -19.1 c12.6 -3.6 28.4 -16.6 37.8 -31 8.4 -12.8 18.4 -35.4 27.4 -61.7 24.5 -71.4 21.6 -120.4 -9.4 -161.7 -18.3 -24.3 -46.3 -41.3 -77.7 -47 -9.6 -1.8 -23.9 -2.3 -81.2 -2.9 l-37.4 -0.4 0.6 34.7 c0.4 32.3 0.6 35 2.6 40.6 5.2 14.3 6.3 21 6.8 43.3 0.6 23.4 -0.4 34.8 -4.3 50.4 -2.3 9.1 -2.4 11.3 -2.3 36.5 0.1 28.5 0.7 36.9 3 38.4 0.8 0.5 11.5 0.6 24.9 0.3 l23.5 -0.6 6 9.3 c3.3 5.2 9.4 13.7 13.6 18.9 16.3 20.2 31.1 31.1 47.2 34.5 6.9 1.4 9.2 1.2 18.9 -1.6z m-304.7 -11.1 c16.1 -5.4 44.6 -22.6 69.7 -41.8 17.7 -13.6 40.5 -36.7 49.5 -50.2 14.1 -21.2 19.5 -36.7 22.3 -64 1 -9.9 1 -13.6 -0.5 -24.9 -3.9 -30.9 -14.7 -53.2 -35.9 -74.5 -18.2 -18.3 -38.1 -28.9 -64.6 -34.6 -8.7 -1.9 -13.9 -2.1 -62.7 -2.5 l-53.3 -0.5 0 127.1 0 127.1 14.8 0 14.7 0 1.9 7.8 c2.5 10.5 6.6 19.1 11.7 24.7 8.8 9.5 17.7 11.3 32.4 6.3z m171.1 -21.5 c-1 -1 -7.6 -1.2 -7.6 -0.2 0 0.5 1.9 0.9 4.2 0.9 2.3 0 3.8 -0.3 3.4 -0.7z m-61.7 -14.7 c0.9 -1 0.8 -1.5 -0.2 -1.9 -0.8 -0.3 -1.3 0.3 -1.4 1.4 -0.2 2.3 0.1 2.4 1.6 0.5z m-306.4 -1.1 c21.2 -3 37.5 -7.7 54.1 -15.5 10.2 -4.8 23 -12.4 27.2 -16.3 l2.2 -2 0 -59.9 0 -59.8 -60 0 -60 0 0 27 0 27 28.3 0 28.4 0 -0.5 18.8 c-0.2 10.3 -0.6 18.9 -0.8 19.1 -0.2 0.2 -3.4 1.2 -7.1 2.3 -9.9 2.9 -43.4 3.8 -54.7 1.4 -12.5 -2.6 -21.8 -7.6 -30.6 -16.5 -8.4 -8.5 -12.5 -15.7 -16.2 -28.7 -2 -7 -2.3 -10 -2.3 -26.9 0.1 -21.9 1.2 -28 7.6 -41.2 4 -8.4 14.7 -21.3 17.5 -21.3 0.8 0 1.4 -0.4 1.4 -0.9 0 -1.3 12.7 -7.7 19 -9.5 9 -2.7 29.6 -3.9 43.3 -2.6 18.8 1.8 31.1 5.5 45.1 13.5 8 4.6 9.6 5.2 9.6 3.7 0 -0.5 5.4 -11.3 12 -24 6.6 -12.8 12 -23.4 12 -23.6 0 -0.7 -9.5 -6.5 -16.7 -10 -17.7 -8.9 -38.6 -13.9 -64.6 -15.7 -52.9 -3.6 -93.9 9.1 -124.6 38.6 -23.3 22.4 -35.3 51.1 -36.8 88 -2.6 65.4 33.3 114.3 96.7 131.4 18.4 5 49.9 6.6 70.5 3.6z m-251.4 -2.5 c0.4 -0.8 6.3 -18.8 12.9 -40 6.7 -21.2 14.1 -44.6 16.5 -52 2.4 -7.4 8 -25.2 12.5 -39.5 4.5 -14.3 10.3 -32.7 13 -41 2.7 -8.2 9.4 -29.4 15 -47 5.7 -17.6 10.4 -32.3 10.7 -32.7 0.2 -0.5 -16.1 -0.8 -36.4 -0.8 l-36.8 0 -18.4 73.3 c-10.1 40.2 -19.7 78.3 -21.3 84.5 l-3.1 11.2 -3.3 0 c-3.8 0 -3.3 1 -7.8 -18 -1.4 -5.8 -4.8 -19.9 -7.6 -31.5 -2.8 -11.5 -6.2 -25.7 -7.6 -31.5 -1.4 -5.8 -6.6 -26.9 -11.5 -47 -4.9 -20.1 -9.1 -37.5 -9.4 -38.7 l-0.5 -2.3 -41.1 0 c-38.8 0 -41.1 0.1 -40.4 1.7 0.8 2.1 25.7 76.2 37.5 111.8 6.5 19.7 45.5 134.7 47.5 140.3 0.3 1 8.8 1.2 39.6 1 33.6 -0.3 39.3 -0.5 40 -1.8z m814.9 -241.5 c-0.7 -0.8 -1.7 -1.2 -2.3 -0.8 -0.6 0.4 -0.3 1.1 0.8 1.9 2.3 1.7 3.2 1 1.5 -1.1z m-7.9 -7.6 c-1.3 -1.1 -2.6 -1.7 -2.9 -1.4 -0.8 0.8 2 3.5 3.7 3.5 1.2 -0.1 1.1 -0.5 -0.8 -2.1z m-23.7 -15.4 c-2.5 -1.9 -3.8 -1.9 -2.2 0 0.7 0.8 1.9 1.4 2.7 1.5 1.1 0 0.9 -0.4 -0.5 -1.5z m-462.4 -7.5 c-1.9 -1.3 -3 -1.3 -3 0 0 0.6 1 1 2.3 1 1.8 0 1.9 -0.2 0.7 -1z m197.9 -1.1 c-2.4 -1.5 -4.5 -1.1 -2.4 0.5 1.1 0.8 2.4 1.2 2.8 0.9 0.5 -0.3 0.3 -0.9 -0.4 -1.4z m-347.9 -6.9 c0 -0.5 -0.7 -1 -1.5 -1 -0.8 0 -1.5 0.5 -1.5 1 0 0.6 0.7 1 1.5 1 0.8 0 1.5 -0.4 1.5 -1z m123.4 -1.2 c-0.3 -0.4 -1.5 -0.8 -2.7 -0.8 -1.5 0 -1.8 0.3 -0.9 0.8 1.7 1.1 4.3 1.1 3.6 0z m-279.4 -0.8 c0 -0.5 -0.7 -1 -1.5 -1 -0.8 0 -1.5 0.5 -1.5 1 0 0.6 0.7 1 1.5 1 0.8 0 1.5 -0.4 1.5 -1z"/>
  <path d="M915.5 342 c-2.7 -0.7 -2.7 -0.8 -0.5 -0.8 1.4 0 3.6 0.4 5 0.8 2 0.6 2.1 0.8 0.5 0.8 -1.1 0 -3.3 -0.4 -5 -0.8z"/>
  <path d="M677.3 334.3 c1.5 -0.2 3.9 -0.2 5.5 0 1.5 0.2 0.2 0.4 -2.8 0.4 -3 0 -4.3 -0.2 -2.7 -0.4z"/>
 </g>
 <g fill="#00a1e9">
  <path d="M1159.3 678.6 c-16.4 -3.8 -31 -14.5 -47.2 -34.6 -4.2 -5.2 -10.3 -13.7 -13.6 -18.8 l-6 -9.4 -23.5 0.7 c-14.4 0.3 -24.1 0.2 -24.9 -0.4 -2.3 -1.5 -3 -10 -3 -41.4 -0.1 -28.3 0 -30.3 2.3 -39.5 1.3 -5.3 3 -13.7 3.6 -18.7 1.3 -10 1.1 -46.3 -0.3 -48.2 -0.4 -0.6 -0.7 -1.7 -0.6 -2.5 0.1 -0.7 0 -2 -0.3 -2.8 -0.3 -0.8 -2.1 -6.2 -3.9 -12 l-3.2 -10.5 -0.6 -37 c-0.4 -20.3 -0.6 -37.1 -0.6 -37.2 0 -0.1 26.3 0.3 58.5 0.7 45.4 0.7 60.2 1.2 66.3 2.4 32.1 6.2 59.5 22.9 77.7 47.1 28.1 37.4 33.2 83.4 16.4 145.5 -8.1 29.5 -23.5 67.3 -34.4 83.9 -15.8 24.2 -41.3 37.5 -62.7 32.7z m0.4 -119.7 c5 -2.4 8.6 -7.2 10.3 -13.7 3.4 -13.2 -8.4 -26.1 -23 -25 -14.3 1 -23 15.2 -17.5 28.5 1.2 2.9 1.3 3.8 0.3 4.6 -1 0.6 -0.8 0.7 0.4 0.4 0.9 -0.3 2.4 0.3 3.5 1.5 5.9 6.6 16.8 8.1 26 3.7z m-65 -48.6 c-0.3 -0.5 2.5 -0.8 6.1 -0.8 10.8 0 18.3 -5.5 21 -15.6 2.3 -8.5 -3.1 -19.5 -11.5 -23.4 -7.3 -3.5 -19.7 -1.5 -24.2 3.9 -0.7 0.9 -1.8 1.3 -2.5 0.9 -0.6 -0.3 -0.8 -0.3 -0.4 0.2 0.4 0.4 -0.2 2.5 -1.3 4.7 -1.6 3.2 -2 5.5 -1.7 11.3 0.2 4 0.6 7.1 1 6.9 0.4 -0.2 1.4 0.9 2.4 2.5 0.9 1.6 3.4 4 5.5 5.2 2.1 1.3 3.9 3 3.9 3.7 0 0.6 0.5 1.2 1.1 1.2 0.5 0 0.8 -0.3 0.6 -0.7z m115.1 -3.2 c2.3 -1.2 5.1 -3.4 6.3 -5.1 1.2 -1.6 2.7 -2.6 3.2 -2.3 0.6 0.3 0.7 0.1 0.4 -0.5 -0.4 -0.5 -0.2 -3.2 0.4 -5.9 3 -12.8 -7.4 -24.6 -21.6 -24.8 -5.2 0 -6.9 0.5 -11.7 3.4 -3.1 1.9 -5.6 3.7 -5.5 4 0 0.3 -0.6 2 -1.5 3.6 -1.7 3.2 -4.1 14.5 -3.3 15.3 0.3 0.3 0.5 -0.1 0.5 -0.9 0 -0.8 1.1 0.9 2.4 3.7 2.5 5.3 7.4 9.9 12.3 11.4 4.3 1.4 13.5 0.5 18.1 -1.9z m-50.2 -50.4 c1.7 -0.9 3.5 -1.3 3.9 -0.9 0.3 0.4 0.5 0.3 0.3 -0.3 -0.1 -0.5 0.9 -2.6 2.4 -4.5 10.8 -14.2 0.5 -33 -18.1 -33 -7.9 0 -14.6 4.2 -18.3 11.4 -1.5 2.9 -1.9 5.3 -1.6 10 0.2 3.3 0.8 7 1.3 8 0.6 1.5 0.5 1.7 -0.5 1.1 -0.9 -0.5 -1.1 -0.4 -0.6 0.4 0.4 0.6 1.1 0.9 1.6 0.6 1 -0.6 3.6 3.5 3.1 5 -0.1 0.6 0.1 0.7 0.5 0.3 0.4 -0.4 2.3 0.2 4.2 1.4 6.2 3.8 15.1 4 21.8 0.5z"/>
  <path d="M854.7 668 c-5.8 -1.5 -8.9 -3.4 -13.6 -8.5 -5.2 -5.6 -9.2 -14.2 -11.7 -24.9 l-1.9 -7.8 -14.5 0.3 -14.5 0.4 -0.3 -130.3 -0.2 -130.3 56.2 0.4 c52 0.4 57 0.6 65.8 2.5 26.5 5.7 46.4 16.3 64.6 34.6 21.5 21.6 32.2 43.9 36.1 75.7 1.5 12.3 1.5 15.9 0.5 27.6 -2.6 28.6 -8 44.3 -22.5 66.1 -9 13.5 -31.8 36.6 -49.5 50.2 -25.3 19.5 -53.5 36.3 -70.2 42 -7.3 2.5 -18.6 3.4 -24.3 2z m43 -117 c3.8 -2.4 4.3 -5.4 4.3 -23.5 l0 -17.5 15.9 0 c8.7 0 18 -0.3 20.6 -0.7 3.8 -0.5 4.6 -0.3 4 0.7 -0.5 0.9 -0.4 1.1 0.4 0.6 0.6 -0.4 0.9 -1.1 0.6 -1.6 -0.3 -0.5 0.1 -1.2 0.8 -1.7 2.8 -1.6 3.7 -5.3 3.7 -15.3 0 -6.9 -0.5 -11 -1.5 -12.9 -0.8 -1.6 -1.2 -3 -1 -3.3 0.7 -0.7 -3.5 -0.8 -23.8 -0.9 l-19.8 -0.1 0.3 -19.4 c0.2 -10.7 0 -19.4 -0.3 -19.4 -0.4 0 -0.9 -1 -1.3 -2.3 -0.9 -3.8 -4.5 -5 -15.8 -5 -11.8 0 -13.7 0.4 -15.8 3.5 -1.4 2.2 -1.6 5.2 -2 41.9 0 0.3 -8.8 0.5 -19.5 0.5 -25 -0.1 -23.9 -0.8 -24.2 16.5 -0.2 12.2 0.6 16.2 3.6 17.5 0.9 0.4 10.4 1 21.1 1.2 l19.5 0.4 0 18.7 c0 13.9 0.3 19.2 1.3 20.3 0.7 0.9 0.9 1.8 0.5 2 -0.4 0.3 -0.3 0.4 0.3 0.2 0.6 -0.1 1.7 0.2 2.5 0.7 2.1 1.5 23 0.5 25.6 -1.1z m53.6 -56.3 c0.9 0.5 0.9 0.3 0.1 -0.8 -0.7 -0.8 -1.4 -2.3 -1.6 -3.4 -0.3 -1.1 -0.5 0 -0.5 2.5 0 2.5 0.2 3.7 0.5 2.7 0.2 -1 0.8 -1.4 1.5 -1z"/>
  <path d="M623 628.4 c-50.5 -7.7 -90 -37.4 -105.5 -79.4 -3.2 -8.7 -6.4 -22.5 -7.6 -32.4 -2.5 -21.5 0.6 -55.6 6.3 -69.5 0.6 -1.4 1.2 -3.3 1.4 -4.1 0.8 -4 7.7 -17.4 13.2 -25.5 7.2 -10.8 21.4 -24.8 32.7 -32.3 29.6 -19.7 64.7 -27.3 111.5 -24.4 10.3 0.7 23.2 2.1 28.5 3.2 18.9 3.9 37.2 11.1 51.1 20.1 l6.2 4 -5.2 9.7 c-2.9 5.3 -9.4 17.9 -14.6 28 -5.1 10 -9.6 18.2 -10 18.2 -0.5 0 -3.2 -1.6 -6.1 -3.6 -18.3 -12.3 -38.1 -17.8 -63.4 -17.6 -16.3 0.1 -25.6 2 -36.5 7.4 -4.7 2.3 -8.9 4.1 -9.5 3.9 -0.5 -0.1 -0.7 0 -0.4 0.3 0.3 0.3 -2.5 3.6 -6.2 7.4 -4.8 5 -7.8 9.2 -10.7 15.3 -6.3 12.8 -7.6 19.7 -7.6 38.4 -0.1 17.9 1.5 25.7 7.7 38.4 7.1 14.7 23.5 27 40.6 30.6 13.2 2.8 39.2 1.8 51.8 -2 l5.2 -1.5 0.3 -16 0.3 -16 -28.2 0 -28.3 0 0 -30 0 -30 63 0 63 0 0 62.8 0 62.9 -2.2 2 c-11.3 10.4 -42 24.2 -64.2 28.9 -21.6 4.6 -56.4 5.8 -76.6 2.8z"/>
  <path d="M345.5 626.7 c-2.1 -5.7 -41 -120.7 -47.5 -140.2 -10.3 -31.1 -38.6 -115.4 -39.5 -117.7 -0.7 -1.7 1.8 -1.8 44.4 -1.8 l45.1 0 0.5 2.3 c0.3 1.2 4.5 18.6 9.4 38.7 4.9 20.1 10.1 41.2 11.5 47 1.4 5.8 5 20.6 8 33 3 12.4 6.6 27.7 8.1 34 1.5 6.3 3.1 12.1 3.5 12.9 0.9 1.7 2.6 -4.8 25.1 -94.6 l18.4 -73.3 40.2 0 c29.1 0 40.3 0.3 40.3 1.1 0 1 -13.4 43.4 -27 85.4 -2.7 8.3 -8.5 26.7 -13 41 -4.5 14.3 -10.1 32.1 -12.5 39.5 -2.4 7.4 -9.8 30.8 -16.5 52 -6.6 21.2 -12.5 39.2 -12.9 40 -0.7 1.3 -6.7 1.5 -43 1.7 -32.9 0.2 -42.3 0 -42.6 -1z"/>
 </g>
</svg>